# xmcd
#
# Track frame offsets:
#	150
#	18367
#	33099
#	49310
#	62339
#	82127
#	99703
#	115653
#	131061
#	145274
#	162108
#	180574
#	200043
#	215088
#	233158
#	243497
#	260934
#
# Disc length: 3757 seconds
#
# Revision: 0
# Processed by: cddbd v1.5.2PL0 Copyright (c) Steve Scherf et al.
# Submitted via: audiograbber 1.83.01
#
DISCID=f80eab11
DTITLE=Anne Murray  - Duets Friends And Legends
DYEAR=2007
DGENRE=Country
TTITLE0=Danny's Song (Martina McBride)
TTITLE1=I Just Fall In Love Again (Dusty Springfield)
TTITLE2=Another Pot O' Tea (Emmylou Harris)
TTITLE3=Daydream Believer (Nelly Furtado)
TTITLE4=Somebody's Always Saying Goodbye (jan Arden)
TTITLE5=Song For The Mira (Celtic Woman)
TTITLE6=Time Don't Run Out On Me (Carole King)
TTITLE7=Cotton Jenny (Olivia Newton-John)
TTITLE8=A Love Song (K.D. Lang)
TTITLE9=You Needed Me (Shania Twain)
TTITLE10=Nobody Loves Me Like You Do (Dawn Langstroth
TTITLE11=You Won't See Me (Shelby Lynne)
TTITLE12=Could I Have This Dance (Amy Grant)
TTITLE13=A Little Good News (Indigo Girls)
TTITLE14=Snowbird (Sarah Brightman)
TTITLE15=When I Fall In Love (Live) (Celine Dion)
TTITLE16=Si jamais je te revois (Isabelle Boulay)
EXTD=
EXTT0=
EXTT1=
EXTT2=
EXTT3=
EXTT4=
EXTT5=
EXTT6=
EXTT7=
EXTT8=
EXTT9=
EXTT10=
EXTT11=
EXTT12=
EXTT13=
EXTT14=
EXTT15=
EXTT16=
PLAYORDER=
